<svg width="18" height="18" viewBox="0 0 18 18" fill="none" xmlns="http://www.w3.org/2000/svg">
<path fill-rule="evenodd" clip-rule="evenodd" d="M5.25 2.25C3.59315 2.25 2.25 3.59315 2.25 5.25V12.75C2.25 14.4069 3.59315 15.75 5.25 15.75H12.75C14.4069 15.75 15.75 14.4069 15.75 12.75V5.25C15.75 3.59315 14.4069 2.25 12.75 2.25H5.25ZM0.75 5.25C0.75 2.76472 2.76472 0.75 5.25 0.75H12.75C15.2353 0.75 17.25 2.76472 17.25 5.25V12.75C17.25 15.2353 15.2353 17.25 12.75 17.25H5.25C2.76472 17.25 0.75 15.2353 0.75 12.75V5.25Z" fill="#333333"/>
</svg>
