<?xml version="1.0" encoding="utf-8"?><svg viewBox="0 0 298.67 298.67" xmlns="http://www.w3.org/2000/svg" xmlns:xlink="http://www.w3.org/1999/xlink"><style>:root>svg{display:none}:root>svg:target{display:block}</style><svg fill="none" viewBox="0 0 16 16" id="arrow_left" xmlns="http://www.w3.org/2000/svg"><path fill-rule="evenodd" clip-rule="evenodd" d="M8.471 3.805a.667.667 0 00-.942-.943L2.862 7.529a.667.667 0 000 .942l4.667 4.667a.667.667 0 00.942-.943L4.943 8.667h7.724a.667.667 0 100-1.334H4.943L8.47 3.805z" fill="#333"/></svg><svg fill="none" viewBox="0 0 16 16" id="arrow_right" xmlns="http://www.w3.org/2000/svg"><path fill-rule="evenodd" clip-rule="evenodd" d="M8.471 2.862a.667.667 0 10-.942.943l3.528 3.528H3.333a.667.667 0 100 1.334h7.724L7.53 12.195a.667.667 0 00.942.943l4.667-4.667a.667.667 0 000-.942L8.471 2.862z" fill="#333"/></svg><svg fill="none" viewBox="0 0 11 18" id="fb" xmlns="http://www.w3.org/2000/svg"><path fill-rule="evenodd" clip-rule="evenodd" d="M4.068 2.068A4.5 4.5 0 017.25.75H9.5a.75.75 0 01.75.75v3a.75.75 0 01-.75.75H7.25v1.5H9.5a.75.75 0 01.728.932l-.75 3a.75.75 0 01-.728.568h-1.5v5.25a.75.75 0 01-.75.75h-3a.75.75 0 01-.75-.75v-5.25h-1.5a.75.75 0 01-.75-.75v-3a.75.75 0 01.75-.75h1.5v-1.5a4.5 4.5 0 011.318-3.182zm3.182.182a3 3 0 00-3 3V7.5a.75.75 0 01-.75.75H2v1.5h1.5a.75.75 0 01.75.75v5.25h1.5V10.5a.75.75 0 01.75-.75h1.664l.375-1.5H6.5a.75.75 0 01-.75-.75V5.25a1.5 1.5 0 011.5-1.5h1.5v-1.5h-1.5z" fill="#333"/></svg><svg fill="none" viewBox="0 0 16 18" id="home" xmlns="http://www.w3.org/2000/svg"><path fill-rule="evenodd" clip-rule="evenodd" d="M7.54.908a.75.75 0 01.92 0l6.75 5.25a.75.75 0 01.29.592V15a2.25 2.25 0 01-2.25 2.25H2.75A2.25 2.25 0 01.5 15V6.75a.75.75 0 01.29-.592L7.54.908zM2 7.117V15a.75.75 0 00.75.75h10.5A.75.75 0 0014 15V7.117L8 2.45 2 7.117z" fill="#333"/><path fill-rule="evenodd" clip-rule="evenodd" d="M5 9a.75.75 0 01.75-.75h4.5A.75.75 0 0111 9v7.5a.75.75 0 01-1.5 0V9.75h-3v6.75a.75.75 0 01-1.5 0V9z" fill="#333"/></svg><svg fill="none" viewBox="0 0 18 17" id="in" xmlns="http://www.w3.org/2000/svg"><path fill-rule="evenodd" clip-rule="evenodd" d="M12 6.75a3.75 3.75 0 00-3.75 3.75V15h1.5v-4.5a2.25 2.25 0 114.5 0V15h1.5v-4.5A3.75 3.75 0 0012 6.75zm0-1.5a5.25 5.25 0 00-5.25 5.25v5.25c0 .414.336.75.75.75h3a.75.75 0 00.75-.75V10.5a.75.75 0 111.5 0v5.25c0 .414.336.75.75.75h3a.75.75 0 00.75-.75V10.5A5.25 5.25 0 0012 5.25zM.75 6.75A.75.75 0 011.5 6h3a.75.75 0 01.75.75v9a.75.75 0 01-.75.75h-3a.75.75 0 01-.75-.75v-9zm1.5.75V15h1.5V7.5h-1.5zM3 2.25a.75.75 0 100 1.5.75.75 0 000-1.5zM.75 3a2.25 2.25 0 114.5 0 2.25 2.25 0 01-4.5 0z" fill="#333"/></svg><svg fill="none" viewBox="0 0 18 18" id="inst" xmlns="http://www.w3.org/2000/svg"><path fill-rule="evenodd" clip-rule="evenodd" d="M5.25 2.25a3 3 0 00-3 3v7.5a3 3 0 003 3h7.5a3 3 0 003-3v-7.5a3 3 0 00-3-3h-7.5zm-4.5 3a4.5 4.5 0 014.5-4.5h7.5a4.5 4.5 0 014.5 4.5v7.5a4.5 4.5 0 01-4.5 4.5h-7.5a4.5 4.5 0 01-4.5-4.5v-7.5z" fill="#333"/></svg><svg fill="none" viewBox="0 0 18 18" id="insta" xmlns="http://www.w3.org/2000/svg"><path fill-rule="evenodd" clip-rule="evenodd" d="M5.25 2.25a3 3 0 00-3 3v7.5a3 3 0 003 3h7.5a3 3 0 003-3v-7.5a3 3 0 00-3-3h-7.5zm-4.5 3a4.5 4.5 0 014.5-4.5h7.5a4.5 4.5 0 014.5 4.5v7.5a4.5 4.5 0 01-4.5 4.5h-7.5a4.5 4.5 0 01-4.5-4.5v-7.5z" fill="#333"/><path fill-rule="evenodd" clip-rule="evenodd" d="M9.363 6.742a2.25 2.25 0 10-.66 4.452 2.25 2.25 0 00.66-4.452zM7.305 5.64a3.75 3.75 0 113.455 6.657A3.75 3.75 0 017.305 5.64z" fill="#333"/></svg><svg fill="none" viewBox="0 0 18 18" id="mail" xmlns="http://www.w3.org/2000/svg"><path fill-rule="evenodd" clip-rule="evenodd" d="M3 3.75c-.41 0-.75.34-.75.75v9c0 .41.34.75.75.75h12c.41 0 .75-.34.75-.75v-9c0-.41-.34-.75-.75-.75H3zM.75 4.5C.75 3.26 1.76 2.25 3 2.25h12c1.24 0 2.25 1.01 2.25 2.25v9c0 1.24-1.01 2.25-2.25 2.25H3c-1.24 0-2.25-1.01-2.25-2.25v-9z" fill="#333"/><path fill-rule="evenodd" clip-rule="evenodd" d="M.886 4.07a.75.75 0 011.044-.184L9 8.835l7.07-4.95a.75.75 0 11.86 1.23l-7.5 5.25a.75.75 0 01-.86 0l-7.5-5.25A.75.75 0 01.886 4.07z" fill="#333"/><path d="M0 0v-1h-1v1h1zm18 0h1v-1h-1v1zm0 18v1h1v-1h-1zM0 18h-1v1h1v-1zM0 1h18v-2H0v2zm17-1v18h2V0h-2zm1 17H0v2h18v-2zM1 18V0h-2v18h2z" fill="#000"/></svg><svg fill="none" viewBox="0 0 18 18" id="phone" xmlns="http://www.w3.org/2000/svg"><path d="M15 17.175h-.225c-2.4-.3-4.8-1.125-6.825-2.4a15.77 15.77 0 01-4.725-4.725C1.875 8.025 1.05 5.625.825 3.225c0-.6.15-1.2.525-1.65.375-.45.9-.75 1.5-.825h2.475c1.125 0 2.1.825 2.25 1.95.075.675.225 1.35.45 1.95.3.825.075 1.725-.525 2.4l-.525.525c.9 1.35 2.025 2.55 3.45 3.45l.525-.525c.6-.6 1.575-.825 2.4-.525a8.22 8.22 0 001.95.45c1.125.15 1.95 1.125 1.95 2.25v2.25c0 .6-.225 1.2-.675 1.575-.45.375-.975.675-1.575.675zM5.325 2.25h-2.25c-.225 0-.45.15-.6.3-.075.15-.15.3-.15.525A14.107 14.107 0 004.5 9.225C5.625 10.95 7.05 12.45 8.775 13.5a14.108 14.108 0 006.15 2.175c.3 0 .45-.075.6-.225a.68.68 0 00.225-.525v-2.25c0-.375-.3-.675-.675-.75-.75-.075-1.5-.3-2.25-.6-.3-.075-.6-.075-.825.15l-.975.975c-.225.225-.6.3-.9.15a12.306 12.306 0 01-4.8-4.8c-.075-.3 0-.675.225-.9l.975-.975c.15-.15.225-.525.15-.75-.3-.75-.45-1.5-.6-2.25 0-.375-.375-.675-.75-.675zM14.25 7.5c-.375 0-.675-.225-.75-.6-.225-1.2-1.2-2.1-2.4-2.4a.778.778 0 01-.6-.9.778.778 0 01.9-.6c1.8.375 3.225 1.725 3.525 3.525.075.375-.15.825-.6.9 0 0 0 .075-.075.075zm3-.075c-.375 0-.675-.3-.75-.675-.3-2.775-2.475-4.95-5.325-5.325A.879.879 0 0110.5.6c0-.375.45-.675.825-.675C14.85.3 17.55 3 17.925 6.525c.075.375-.225.75-.675.825.075.075 0 .075 0 .075z" fill="#333"/></svg><svg viewBox="0 0 298.667 298.667" id="quote" xmlns="http://www.w3.org/2000/svg"><path d="M0 170.667h64L21.333 256h64L128 170.667v-128H0zM170.667 42.667v128h64L192 256h64l42.667-85.333v-128z"/></svg><svg fill="none" viewBox="0 0 18 16" id="tw" xmlns="http://www.w3.org/2000/svg"><path d="M6.225 15.425c-1.95 0-3.975-.525-5.775-1.575a.754.754 0 01-.375-.825.72.72 0 01.675-.525c1.275.075 2.55-.225 3.675-.75C1.65 10.025.9 7.625.825 5.75c-.075-2.175.675-3.975.75-4.05.075-.225.3-.45.6-.45s.525.075.675.3c1.275 1.8 3.225 2.925 5.4 3.075 0-1.2.525-2.325 1.425-3.15a4.207 4.207 0 015.475 0c.6-.225 1.2-.525 1.725-.9.225-.15.6-.15.825 0 .225.15.375.525.3.825-.225 1.05-.75 2.025-1.5 2.85v.375c0 4.125-1.8 7.575-5.025 9.375-1.575.975-3.375 1.425-5.25 1.425zm-2.475-1.8c2.475.6 4.95.3 7.05-.9 2.7-1.575 4.275-4.575 4.275-8.1 0-.15 0-.3-.075-.45a.605.605 0 01.225-.675c.15-.15.3-.375.45-.525-.15.075-.375.15-.525.15-.3.075-.6 0-.75-.225-.975-1.05-2.625-1.2-3.675-.225-.675.45-.975 1.2-.975 1.95v.75c0 .375-.3.75-.75.75-2.475.075-4.8-.9-6.45-2.625-.45 1.95-.6 5.625 3.75 7.5.225.15.45.375.45.675 0 .3-.075.525-.3.675-.9.6-1.8 1.05-2.7 1.275z" fill="#333"/></svg></svg>